<?xml version="1.0" standalone="no"?>
<!DOCTYPE svg PUBLIC "-//W3C//DTD SVG 20010904//EN"
 "http://www.w3.org/TR/2001/REC-SVG-20010904/DTD/svg10.dtd">
<svg version="1.0" xmlns="http://www.w3.org/2000/svg"
 width="500.000000pt" height="500.000000pt" viewBox="0 0 500.000000 500.000000"
 preserveAspectRatio="xMidYMid meet">
<metadata>
Created by potrace 1.14, written by Peter Selinger 2001-2017
</metadata>
<g transform="translate(0.000000,500.000000) scale(0.100000,-0.100000)"
fill="#000000" stroke="none">
<path d="M2259 4186 c-2 -2 -33 -7 -69 -10 -144 -15 -344 -74 -500 -147 -298
-141 -558 -374 -730 -654 -102 -167 -203 -428 -225 -585 -3 -25 -9 -63 -13
-85 -9 -55 -8 -346 1 -424 46 -378 225 -738 502 -1009 227 -221 510 -379 784
-438 14 -3 28 -7 32 -10 4 -2 27 -7 51 -10 24 -3 49 -7 56 -9 62 -21 371 -24
497 -5 44 7 89 13 101 15 50 7 253 70 323 100 378 161 687 447 865 801 84 166
156 397 173 559 10 90 10 332 0 413 -49 396 -219 738 -512 1027 -135 132 -320
256 -511 339 -101 45 -311 106 -414 121 -53 7 -404 17 -411 11z m361 -30 c127
-19 295 -60 387 -96 150 -59 354 -174 444 -252 15 -13 42 -35 60 -50 19 -14
64 -57 101 -95 307 -314 479 -731 481 -1163 1 -85 -10 -250 -18 -273 -2 -7 -7
-30 -10 -52 -12 -82 -58 -233 -109 -351 -130 -302 -340 -550 -636 -751 -173
-117 -442 -216 -682 -250 -107 -16 -423 -9 -518 11 -14 3 -59 13 -100 22 -131
28 -316 102 -455 183 -141 81 -328 241 -442 376 -172 204 -319 519 -359 770
-3 22 -7 42 -9 45 -6 10 -18 186 -18 275 -1 97 7 189 23 276 6 30 13 67 16 84
12 68 58 199 110 313 19 41 34 75 34 78 0 14 140 231 175 270 6 7 37 43 70 81
68 78 209 202 311 272 150 103 370 202 529 236 11 3 41 10 67 16 135 32 414
44 548 25z"/>
<path d="M2289 4126 c-2 -2 -35 -7 -74 -10 -149 -14 -346 -72 -505 -147 -92
-44 -281 -167 -345 -225 -22 -20 -53 -48 -70 -63 -80 -73 -201 -221 -262 -320
-105 -173 -202 -425 -220 -576 -2 -21 -7 -43 -9 -47 -3 -5 -8 -62 -11 -128
l-6 -120 367 0 366 0 -1 433 c0 237 -5 458 -10 491 -15 88 -50 145 -100 161
-11 4 -19 13 -19 21 0 11 23 14 128 14 l127 0 95 -158 c52 -86 169 -278 259
-427 90 -148 170 -280 176 -293 l13 -23 19 33 c11 18 100 168 198 333 98 165
209 353 248 418 l70 118 115 -3 c66 -2 117 -7 119 -13 1 -5 -15 -20 -36 -32
-73 -42 -89 -113 -90 -415 -1 -163 1 -208 11 -209 200 -12 313 -41 438 -111
117 -66 214 -168 266 -283 l26 -55 236 2 237 3 0 35 c0 70 -17 223 -32 295 -4
17 -7 32 -8 35 -29 143 -113 351 -199 490 -246 398 -676 690 -1111 755 -22 4
-51 9 -65 11 -30 7 -336 15 -341 10z"/>
<path d="M2629 3387 c-62 -100 -259 -436 -259 -441 0 -3 65 -6 145 -6 l145 0
0 245 c0 135 -1 245 -2 245 -2 0 -15 -19 -29 -43z"/>
<path d="M1559 3405 c-1 -14 -1 -843 0 -882 l1 -33 420 0 420 0 1 43 c4 198
-6 301 -33 340 -21 29 -34 28 -49 -6 -5 -12 -15 -31 -21 -41 -44 -68 -98 -157
-98 -161 0 -8 -64 -110 -73 -116 -5 -4 -17 -4 -26 -2 -12 3 -293 455 -484 778
-33 55 -57 89 -58 80z"/>
<path d="M2576 2902 c-2 -4 -3 -98 -3 -209 l0 -203 44 0 43 0 -2 208 -3 207
-38 2 c-20 0 -39 -2 -41 -5z"/>
<path d="M2830 2696 l0 -206 266 0 c303 0 278 -11 219 96 -87 155 -248 265
-452 309 l-33 7 0 -206z"/>
<path d="M2365 2410 c-35 -8 -73 -26 -97 -48 -24 -20 -34 -78 -17 -98 18 -22
49 -37 49 -24 0 5 -5 10 -11 10 -15 0 -39 26 -39 44 0 92 171 147 241 77 16
-17 29 -24 29 -16 0 17 -56 51 -95 57 -16 3 -43 2 -60 -2z"/>
<path d="M1194 2353 c-34 -90 -76 -152 -126 -190 -18 -12 -26 -23 -19 -23 23
0 97 84 126 143 15 31 30 57 32 57 3 0 3 -7 -1 -15 -3 -8 -1 -15 4 -15 6 0 9
13 8 28 -1 15 1 33 5 39 4 6 3 14 -2 17 -5 4 -17 -15 -27 -41z"/>
<path d="M1315 2377 c-4 -12 -8 -33 -10 -47 -1 -14 -5 -41 -9 -60 -3 -19 0
-12 9 15 8 28 19 62 24 77 5 16 6 30 1 33 -4 3 -11 -5 -15 -18z"/>
<path d="M1543 2342 c-18 -11 -33 -59 -33 -106 0 -39 -3 -44 -37 -63 -45 -25
-71 -22 -94 9 -13 17 -15 25 -6 31 8 5 5 7 -7 5 -28 -4 -63 -55 -48 -70 9 -9
16 -7 32 7 15 14 23 16 29 7 12 -20 54 -20 95 0 38 19 38 19 53 -1 18 -26 52
-27 96 -1 33 19 35 20 39 3 7 -26 54 -27 95 -3 42 25 42 25 35 -2 -5 -20 -3
-21 11 -10 9 8 13 20 10 28 -3 7 4 28 14 46 34 57 43 95 28 108 -17 14 -39
-25 -50 -87 -7 -45 -24 -66 -69 -83 -41 -15 -66 -4 -66 28 0 15 -4 22 -8 17
-14 -21 -70 -55 -90 -55 -11 0 -27 7 -36 15 -13 14 -13 20 1 58 32 89 35 137
6 119z m7 -44 c-4 -18 -12 -44 -18 -58 -11 -25 -11 -25 -11 7 -1 37 14 83 28
83 5 0 6 -14 1 -32z m295 -15 c-23 -54 -36 -64 -24 -17 13 47 17 54 30 54 5 0
2 -17 -6 -37z m-485 -90 c-1 -14 -27 -43 -33 -37 -8 9 11 44 23 44 6 0 10 -3
10 -7z"/>
<path d="M3103 2337 c-16 -19 -33 -77 -24 -77 5 0 12 16 15 35 4 19 11 35 16
35 13 0 12 -16 -1 -64 -8 -29 -13 -36 -20 -25 -5 8 -9 10 -10 4 -4 -50 -20
-66 -82 -85 -39 -11 -92 -6 -102 11 -4 5 -1 9 4 9 6 0 11 7 11 15 0 8 8 15 18
15 14 0 15 -2 2 -10 -8 -5 -12 -11 -9 -14 11 -11 32 13 25 29 -6 16 -8 16 -29
1 -12 -9 -32 -23 -45 -32 -12 -9 -39 -17 -60 -18 -31 -1 -38 3 -40 22 -2 12
-8 22 -14 22 -6 0 -8 -3 -5 -6 10 -10 -12 -44 -28 -44 -7 0 -15 10 -17 23 l-3
23 -35 -24 c-32 -23 -29 -24 14 -6 9 3 17 -3 21 -15 8 -25 18 -26 39 -6 9 9
17 11 21 5 8 -14 58 -13 89 2 22 9 29 8 46 -7 25 -22 96 -15 148 15 l34 20 5
-20 c8 -29 48 -36 91 -15 24 11 38 13 40 6 6 -19 20 -12 15 8 -3 10 0 22 6 25
9 6 16 -12 12 -36 -1 -8 62 0 103 13 26 8 28 7 21 -14 -4 -12 -7 -30 -8 -39
-1 -10 -5 -18 -10 -18 -5 0 -6 -7 -3 -16 3 -8 2 -12 -4 -9 -6 3 -10 -3 -10
-14 0 -12 4 -21 10 -21 8 0 16 23 35 102 4 14 15 34 26 44 18 16 19 16 19 -4
0 -11 -6 -23 -12 -26 -21 -9 85 1 111 12 19 7 29 4 43 -10 29 -29 116 -18 160
20 12 9 28 13 48 9 23 -5 30 -3 30 9 0 11 -6 13 -20 9 -16 -5 -20 -2 -20 14 0
21 -19 30 -21 11 -1 -5 -2 -15 -3 -22 -3 -30 -112 -67 -156 -53 -28 9 -25 19
13 34 18 7 26 15 19 18 -6 2 -9 10 -5 16 3 5 -18 -3 -48 -20 -52 -29 -137 -53
-126 -36 10 15 -10 36 -37 39 -14 1 -26 -1 -26 -5 0 -12 -48 -31 -80 -31 -20
0 -30 5 -30 14 0 28 -21 27 -67 -3 -53 -35 -88 -39 -102 -13 -11 21 -10 39 7
68 28 52 24 139 -5 101z m502 -137 c-3 -5 -11 -10 -16 -10 -6 0 -7 5 -4 10 3
6 11 10 16 10 6 0 7 -4 4 -10z"/>
<path d="M1260 2286 c-17 -31 -35 -58 -41 -61 -5 -4 -9 -11 -9 -16 0 -6 4 -8
8 -5 14 8 84 127 79 132 -3 3 -19 -20 -37 -50z"/>
<path d="M2359 2339 c-9 -49 -27 -93 -37 -91 -7 1 -12 -2 -12 -8 0 -5 4 -10
10 -10 6 0 6 -9 0 -26 -6 -14 -10 -34 -10 -44 0 -16 4 -17 33 -9 17 6 38 11
45 13 21 4 100 64 116 88 18 29 28 78 15 78 -5 0 -9 -6 -8 -12 4 -32 -3 -48
-36 -81 -55 -55 -166 -100 -151 -61 3 9 6 22 6 30 0 8 16 24 35 36 20 11 34
23 31 26 -3 3 -12 -1 -21 -8 -23 -19 -29 -6 -15 35 7 20 9 39 6 42 -3 4 -6 4
-7 2z"/>
<path d="M2310 2326 c0 -2 7 -6 15 -10 8 -3 15 -1 15 4 0 6 -7 10 -15 10 -8 0
-15 -2 -15 -4z"/>
<path d="M1198 2275 c-3 -14 -1 -25 3 -25 5 0 9 11 9 25 0 14 -2 25 -4 25 -2
0 -6 -11 -8 -25z"/>
<path d="M1191 2229 c-1 -9 -4 -32 -7 -50 -6 -33 -6 -33 9 -13 12 15 14 29 7
50 -4 16 -9 22 -9 13z"/>
<path d="M1660 2229 c0 -5 5 -7 10 -4 6 3 10 8 10 11 0 2 -4 4 -10 4 -5 0 -10
-5 -10 -11z"/>
<path d="M1280 2186 c0 -25 3 -47 8 -49 4 -3 7 17 7 44 0 27 -3 49 -7 49 -5 0
-8 -20 -8 -44z"/>
<path d="M2531 2206 c-13 -14 -21 -32 -18 -40 8 -20 73 -31 100 -17 19 9 17
10 -14 5 -21 -3 -47 -1 -60 6 -22 12 -22 12 9 26 18 7 32 18 32 24 0 6 -4 9
-9 6 -5 -4 -11 -1 -13 5 -2 5 -14 -1 -27 -15z m24 -6 c-3 -5 -11 -10 -16 -10
-6 0 -7 5 -4 10 3 6 11 10 16 10 6 0 7 -4 4 -10z"/>
<path d="M1026 2210 c-45 -14 -56 -38 -30 -64 18 -18 34 -21 34 -6 0 6 -6 10
-14 10 -8 0 -18 5 -21 10 -9 15 14 40 36 40 10 0 21 5 24 10 3 6 5 10 3 9 -2
0 -16 -5 -32 -9z"/>
<path d="M1837 2188 c-28 -22 -5 -41 47 -40 46 1 106 27 106 46 0 5 -8 2 -18
-7 -28 -26 -132 -41 -132 -20 0 3 8 12 18 19 9 7 12 14 6 14 -5 0 -18 -6 -27
-12z"/>
<path d="M3900 2178 c-24 -13 -47 -18 -73 -14 -23 2 -35 0 -31 -6 10 -16 89
-3 126 21 41 26 26 25 -22 -1z"/>
<path d="M880 1967 c0 -46 140 -324 202 -402 5 -5 25 -32 46 -60 20 -27 44
-56 52 -65 8 -9 36 -39 61 -66 243 -259 579 -431 950 -488 108 -16 385 -14
489 4 186 32 407 115 580 216 203 119 418 335 552 554 48 77 121 234 133 283
l7 27 -187 -2 -186 -3 -22 -50 c-24 -59 -94 -167 -134 -210 -81 -88 -188 -152
-318 -191 -89 -28 -93 -28 -437 -32 -368 -4 -377 -3 -322 40 26 21 43 55 49
98 4 24 8 250 6 318 l-1 32 -760 0 c-418 0 -760 -2 -760 -3z"/>
<path d="M2574 1783 c2 -104 7 -199 13 -213 20 -47 52 -55 227 -55 100 0 182
6 216 14 133 32 246 114 307 221 29 52 73 175 73 206 0 12 -67 14 -419 14
l-419 0 2 -187z"/>
</g>
</svg>
